<svg width="56" height="65" viewBox="0 0 56 65" fill="none" xmlns="http://www.w3.org/2000/svg">
<path d="M23.125 33.7394L17.1356 27.75L13.875 31.0106L23.125 40.2606L41.625 21.7606L38.3644 18.5L23.125 33.7394Z" fill="#0C9FD6"/>
<path d="M27.75 64.75L13.468 57.1349C9.39647 54.9688 5.99163 51.7349 3.61889 47.7802C1.24616 43.8255 -0.00488646 39.2994 1.43435e-05 34.6875V4.625C0.00123876 3.39875 0.488908 2.22307 1.356 1.35598C2.22309 0.488893 3.39876 0.00122441 4.62501 0H50.875C52.1013 0.00122441 53.2769 0.488893 54.144 1.35598C55.0111 2.22307 55.4988 3.39875 55.5 4.625V34.6875C55.5049 39.2994 54.2539 43.8255 51.8811 47.7802C49.5084 51.7349 46.1036 54.9688 42.032 57.1349L27.75 64.75ZM4.62501 4.625V34.6875C4.62118 38.461 5.64507 42.1644 7.58678 45.4C9.52849 48.6357 12.3147 51.2815 15.6464 53.0534L27.75 59.5076L39.8536 53.0557C43.1857 51.2836 45.9721 48.6375 47.9138 45.4014C49.8556 42.1653 50.8793 38.4614 50.875 34.6875V4.625H4.62501Z" fill="#0C9FD6"/>
</svg>
