<svg width="51" height="64" viewBox="0 0 51 64" fill="none" xmlns="http://www.w3.org/2000/svg">
<path d="M15.3333 38.6667L22 45.3333L35.3333 32M15.3333 8.66667H8.66667C6.89856 8.66667 5.20286 9.36905 3.95262 10.6193C2.70238 11.8695 2 13.5652 2 15.3333V55.3333C2 57.1014 2.70238 58.7971 3.95262 60.0474C5.20286 61.2976 6.89856 62 8.66667 62H42C43.7681 62 45.4638 61.2976 46.714 60.0474C47.9643 58.7971 48.6667 57.1014 48.6667 55.3333V15.3333C48.6667 13.5652 47.9643 11.8695 46.714 10.6193C45.4638 9.36905 43.7681 8.66667 42 8.66667H35.3333H15.3333ZM15.3333 8.66667C15.3333 10.4348 16.0357 12.1305 17.286 13.3807C18.5362 14.631 20.2319 15.3333 22 15.3333H28.6667C30.4348 15.3333 32.1305 14.631 33.3807 13.3807C34.631 12.1305 35.3333 10.4348 35.3333 8.66667H15.3333ZM15.3333 8.66667C15.3333 6.89856 16.0357 5.20286 17.286 3.95262C18.5362 2.70238 20.2319 2 22 2H28.6667C30.4348 2 32.1305 2.70238 33.3807 3.95262C34.631 5.20286 35.3333 6.89856 35.3333 8.66667H15.3333Z" stroke="#0C9FD6" stroke-width="4" stroke-linecap="round" stroke-linejoin="round"/>
</svg>
