<svg width="85" height="47" viewBox="0 0 85 47" fill="none" xmlns="http://www.w3.org/2000/svg">
<path d="M11.856 33.592H4.872L3.672 37H0.816L6.792 20.296H9.96L15.936 37H13.056L11.856 33.592ZM11.088 31.36L8.376 23.608L5.64 31.36H11.088ZM23.3344 37.216C22.2944 37.216 21.3584 37.032 20.5264 36.664C19.7104 36.28 19.0624 35.768 18.5824 35.128C18.1024 34.472 17.8464 33.744 17.8144 32.944H20.6464C20.6944 33.504 20.9584 33.976 21.4384 34.36C21.9344 34.728 22.5504 34.912 23.2864 34.912C24.0544 34.912 24.6464 34.768 25.0624 34.48C25.4944 34.176 25.7104 33.792 25.7104 33.328C25.7104 32.832 25.4704 32.464 24.9904 32.224C24.5264 31.984 23.7824 31.72 22.7584 31.432C21.7664 31.16 20.9584 30.896 20.3344 30.64C19.7104 30.384 19.1664 29.992 18.7024 29.464C18.2544 28.936 18.0304 28.24 18.0304 27.376C18.0304 26.672 18.2384 26.032 18.6544 25.456C19.0704 24.864 19.6624 24.4 20.4304 24.064C21.2144 23.728 22.1104 23.56 23.1184 23.56C24.6224 23.56 25.8304 23.944 26.7424 24.712C27.6704 25.464 28.1664 26.496 28.2304 27.808H25.4944C25.4464 27.216 25.2064 26.744 24.7744 26.392C24.3424 26.04 23.7584 25.864 23.0224 25.864C22.3024 25.864 21.7504 26 21.3664 26.272C20.9824 26.544 20.7904 26.904 20.7904 27.352C20.7904 27.704 20.9184 28 21.1744 28.24C21.4304 28.48 21.7424 28.672 22.1104 28.816C22.4784 28.944 23.0224 29.112 23.7424 29.32C24.7024 29.576 25.4864 29.84 26.0944 30.112C26.7184 30.368 27.2544 30.752 27.7024 31.264C28.1504 31.776 28.3824 32.456 28.3984 33.304C28.3984 34.056 28.1904 34.728 27.7744 35.32C27.3584 35.912 26.7664 36.376 25.9984 36.712C25.2464 37.048 24.3584 37.216 23.3344 37.216ZM36.5867 30.4L42.6827 37H38.9867L34.0907 31.312V37H31.3547V19.24H34.0907V29.56L38.8907 23.776H42.6827L36.5867 30.4Z" fill="#FF9900"/>
<path d="M53.5718 28.432C54.4678 28.592 55.2278 29.064 55.8518 29.848C56.4758 30.632 56.7878 31.52 56.7878 32.512C56.7878 33.36 56.5638 34.128 56.1158 34.816C55.6838 35.488 55.0518 36.024 54.2198 36.424C53.3878 36.808 52.4198 37 51.3158 37H44.6438V20.32H51.0038C52.1398 20.32 53.1158 20.512 53.9318 20.896C54.7478 21.28 55.3638 21.8 55.7798 22.456C56.1958 23.096 56.4037 23.816 56.4037 24.616C56.4037 25.576 56.1478 26.376 55.6358 27.016C55.1238 27.656 54.4358 28.128 53.5718 28.432ZM47.3798 27.328H50.7638C51.6598 27.328 52.3558 27.128 52.8518 26.728C53.3638 26.312 53.6198 25.72 53.6198 24.952C53.6198 24.2 53.3638 23.616 52.8518 23.2C52.3558 22.768 51.6598 22.552 50.7638 22.552H47.3798V27.328ZM51.0758 34.768C52.0038 34.768 52.7318 34.544 53.2598 34.096C53.7878 33.648 54.0518 33.024 54.0518 32.224C54.0518 31.408 53.7718 30.76 53.2118 30.28C52.6518 29.8 51.9078 29.56 50.9798 29.56H47.3798V34.768H51.0758ZM71.7369 23.776V37H69.0009V35.44C68.5689 35.984 68.0009 36.416 67.2969 36.736C66.6089 37.04 65.8729 37.192 65.0889 37.192C64.0489 37.192 63.1129 36.976 62.2809 36.544C61.4649 36.112 60.8169 35.472 60.3369 34.624C59.8729 33.776 59.6409 32.752 59.6409 31.552V23.776H62.3529V31.144C62.3529 32.328 62.6489 33.24 63.2409 33.88C63.8329 34.504 64.6409 34.816 65.6649 34.816C66.6889 34.816 67.4969 34.504 68.0889 33.88C68.6969 33.24 69.0009 32.328 69.0009 31.144V23.776H71.7369ZM77.7709 34.768H83.7709V37H74.6029V34.768L80.6269 26.008H74.6029V23.776H83.7709V26.008L77.7709 34.768Z" fill="#2588AD"/>
<path d="M8.5 0L14.5528 12.1056C15.2177 13.4354 14.2507 15 12.7639 15H4.23607C2.7493 15 1.78231 13.4354 2.44721 12.1056L8.5 0Z" fill="#2588AD"/>
<path d="M5.6875 5.625L8.5 0L11.3125 5.625H5.6875Z" fill="#FF9900"/>
</svg>
