<svg width="67" height="67" viewBox="0 0 67 67" fill="none" xmlns="http://www.w3.org/2000/svg">
<path d="M63.2476 49.281L56.3476 42.2143C54.8634 40.8035 52.9913 39.8687 50.9717 39.5301C48.9521 39.1915 46.8775 39.4646 45.0143 40.3143L42.0143 37.3143C45.5495 32.5907 47.164 26.7032 46.5328 20.8371C45.9016 14.9709 43.0715 9.5617 38.6124 5.69829C34.1532 1.83487 28.3961 -0.195853 22.4998 0.0149054C16.6036 0.225664 11.0061 2.66226 6.83419 6.83419C2.66226 11.0061 0.225664 16.6036 0.0149054 22.4998C-0.195853 28.3961 1.83487 34.1532 5.69829 38.6124C9.56171 43.0715 14.9709 45.9016 20.8371 46.5328C26.7032 47.164 32.5907 45.5495 37.3143 42.0143L40.281 44.981C39.3313 46.8464 38.9909 48.9628 39.3078 51.032C39.6248 53.1011 40.5831 55.0187 42.0476 56.5143L49.1143 63.581C50.9893 65.4536 53.531 66.5055 56.181 66.5055C58.831 66.5055 61.3726 65.4536 63.2476 63.581C64.2001 62.6496 64.9569 61.5374 65.4736 60.3096C65.9902 59.0818 66.2564 57.7631 66.2564 56.431C66.2564 55.0988 65.9902 53.7802 65.4736 52.5523C64.9569 51.3245 64.2001 50.2123 63.2476 49.281ZM34.981 35.1476C32.6484 37.4743 29.6786 39.0574 26.4468 39.6971C23.2149 40.3368 19.8659 40.0043 16.823 38.7416C13.78 37.4789 11.1795 35.3427 9.35 32.6027C7.5205 29.8628 6.54409 26.6422 6.54409 23.3476C6.54409 20.0531 7.5205 16.8324 9.35 14.0925C11.1795 11.3526 13.78 9.21636 16.823 7.95367C19.8659 6.69097 23.2149 6.35845 26.4468 6.99813C29.6786 7.6378 32.6484 9.22096 34.981 11.5476C36.5331 13.0958 37.7645 14.935 38.6047 16.9598C39.4449 18.9847 39.8774 21.1554 39.8774 23.3476C39.8774 25.5399 39.4449 27.7106 38.6047 29.7354C37.7645 31.7603 36.5331 33.5994 34.981 35.1476ZM58.5476 58.7143C58.2378 59.0267 57.8691 59.2747 57.4629 59.4439C57.0567 59.6132 56.621 59.7003 56.181 59.7003C55.7409 59.7003 55.3052 59.6132 54.899 59.4439C54.4928 59.2747 54.1242 59.0267 53.8143 58.7143L46.7476 51.6476C46.4352 51.3378 46.1872 50.9691 46.018 50.5629C45.8488 50.1567 45.7616 49.721 45.7616 49.281C45.7616 48.8409 45.8488 48.4052 46.018 47.999C46.1872 47.5928 46.4352 47.2242 46.7476 46.9143C47.0575 46.6019 47.4262 46.3539 47.8324 46.1847C48.2386 46.0154 48.6743 45.9283 49.1143 45.9283C49.5543 45.9283 49.99 46.0154 50.3962 46.1847C50.8024 46.3539 51.1711 46.6019 51.481 46.9143L58.5476 53.981C58.8601 54.2908 59.108 54.6595 59.2773 55.0657C59.4465 55.4719 59.5336 55.9076 59.5336 56.3476C59.5336 56.7877 59.4465 57.2233 59.2773 57.6295C59.108 58.0357 58.8601 58.4044 58.5476 58.7143Z" fill="#0C9FD6"/>
</svg>
